<?xml version="1.0" encoding="utf-8"?>
<!-- Generator: Adobe Illustrator 24.3.0, SVG Export Plug-In . SVG Version: 6.00 Build 0)  -->
<svg version="1.1" id="Warstwa_1" xmlns="http://www.w3.org/2000/svg" xmlns:xlink="http://www.w3.org/1999/xlink" x="0px" y="0px"
	 viewBox="0 0 606 90.13" style="enable-background:new 0 0 606 90.13;" xml:space="preserve">
<style type="text/css">
	.st0{fill:none;stroke:#FFE500;stroke-width:4;stroke-miterlimit:10;}
</style>
<rect x="1.97" y="2.32" class="st0" width="602" height="86"/>
<line class="st0" x1="197.56" y1="2.32" x2="197.56" y2="88.32"/>
<line class="st0" x1="132.36" y1="2.32" x2="132.36" y2="88.32"/>
<line class="st0" x1="67.16" y1="2.32" x2="67.16" y2="88.32"/>
<line class="st0" x1="261.97" y1="2.32" x2="261.97" y2="88.32"/>
<line class="st0" x1="341.12" y1="2.32" x2="341.12" y2="88.32"/>
<line class="st0" x1="406.86" y1="2.32" x2="406.86" y2="88.32"/>
<line class="st0" x1="472.06" y1="2.32" x2="472.06" y2="88.32"/>
<line class="st0" x1="537.25" y1="2.32" x2="537.25" y2="88.32"/>
<line class="st0" x1="406.86" y1="2.32" x2="341.12" y2="29.53"/>
<line class="st0" x1="406.86" y1="88.32" x2="341.12" y2="61.12"/>
<line class="st0" x1="472.06" y1="2.32" x2="406.86" y2="18.9"/>
<line class="st0" x1="472.06" y1="88.32" x2="406.86" y2="71.74"/>
<line class="st0" x1="537.25" y1="2.32" x2="472.06" y2="14.29"/>
<line class="st0" x1="603.97" y1="2.32" x2="537.25" y2="11.85"/>
<line class="st0" x1="537.25" y1="88.32" x2="472.06" y2="76.36"/>
<line class="st0" x1="603.97" y1="88.32" x2="537.25" y2="78.79"/>
<line class="st0" x1="197.56" y1="2.32" x2="261.97" y2="28.6"/>
<line class="st0" x1="197.56" y1="88.32" x2="261.97" y2="62.05"/>
<line class="st0" x1="132.36" y1="88.32" x2="197.56" y2="71.89"/>
<line class="st0" x1="67.16" y1="88.32" x2="132.36" y2="76.44"/>
<line class="st0" x1="1.97" y1="88.32" x2="67.16" y2="79.01"/>
<line class="st0" x1="132.36" y1="2.32" x2="197.56" y2="18.76"/>
<line class="st0" x1="67.16" y1="2.32" x2="132.36" y2="14.21"/>
<line class="st0" x1="1.97" y1="2.32" x2="67.16" y2="11.64"/>
</svg>
